<svg xmlns="http://www.w3.org/2000/svg" viewBox="0 0 500 500"><g id="freepik--Floor--inject-36"><ellipse id="freepik--floor--inject-36" cx="251.12" cy="333.69" rx="238.53" ry="140.13" style="fill:#f5f5f5"></ellipse></g><g id="freepik--Shadows--inject-36"><path id="freepik--Shadow--inject-36" d="M35.08,343.63l112.6,65a10.25,10.25,0,0,0,9.28,0L369,286.22c2.56-1.48,2.56-3.88,0-5.36l-112.6-65a10.25,10.25,0,0,0-9.28,0l-212,122.42C32.52,339.75,32.52,342.15,35.08,343.63Z" style="fill:#e0e0e0"></path><ellipse id="freepik--shadow--inject-36" cx="423.78" cy="358.9" rx="37.52" ry="21.66" style="fill:#e0e0e0"></ellipse><ellipse id="freepik--shadow--inject-36" cx="319.05" cy="373.47" rx="55.81" ry="32.22" style="fill:#e0e0e0"></ellipse></g><g id="freepik--Device--inject-36"><g id="freepik--Mobile--inject-36"><g id="freepik--device--inject-36"><path d="M42.6,321.2c-1.57,1.22-1.4,3,.51,4.06L148,385.8a8.5,8.5,0,0,0,7.63,0L355.94,270.11c1.94-1.12,2.1-2.88.45-4.1a8.5,8.5,0,0,1,3.36,6.31v5A8.41,8.41,0,0,1,356,284L155.59,399.64a8.41,8.41,0,0,1-7.63,0L43.12,339.12a8.38,8.38,0,0,1-3.81-6.61l0-5.05A8.53,8.53,0,0,1,42.6,321.2Z" style="fill:#263238"></path><path d="M43.11,325.26,148,385.8a8.5,8.5,0,0,0,7.63,0L355.94,270.11c2.1-1.21,2.11-3.19,0-4.4L251.1,205.18a8.47,8.47,0,0,0-7.63,0L43.11,320.86C41,322.08,41,324.05,43.11,325.26ZM227.35,220.83c1.8-1,3.68-.44,5.48.61l95.33,55c1.8,1,1.81,2.73,0,3.77l-156,90.07a7.28,7.28,0,0,1-6.54,0L70.3,315.27c-1.81-1-1.81-2.73,0-3.77Z" style="fill:#455a64"></path><path d="M356.39,266a8.5,8.5,0,0,1,3.36,6.31v5A8.43,8.43,0,0,1,356,284L155.59,399.64a7.91,7.91,0,0,1-3.82.92V386.7a7.87,7.87,0,0,0,3.82-.91L355.94,270.11C357.88,269,358,267.23,356.39,266Z" style="fill:#37474f"></path><path d="M293.46,241.39c-1.41-.82-1.41-2.14,0-2.95a5.64,5.64,0,0,1,5.12,0c1.41.81,1.41,2.13,0,2.95A5.7,5.7,0,0,1,293.46,241.39Z"></path><path d="M105.44,354a12.81,12.81,0,0,1-6.27-1.5c-1.77-1-2.74-2.41-2.74-3.9s1-2.89,2.74-3.91a13.85,13.85,0,0,1,12.54,0c1.77,1,2.74,2.41,2.74,3.91s-1,2.88-2.74,3.9A12.81,12.81,0,0,1,105.44,354Zm0-9.82a11.89,11.89,0,0,0-5.77,1.37c-1.45.84-2.24,1.92-2.24,3.05s.79,2.2,2.24,3a12.78,12.78,0,0,0,11.54,0c1.44-.84,2.24-1.92,2.24-3s-.8-2.21-2.24-3.05A11.89,11.89,0,0,0,105.44,344.2Z" style="fill:#e6e6e6"></path><path d="M296,251.18l-19.74-11.39c-1.17-.68-1.23-1.75-.13-2.39a4.56,4.56,0,0,1,4.13.08L300,248.87c1.18.68,1.23,1.75.13,2.39A4.56,4.56,0,0,1,296,251.18Z"></path><path d="M227.35,220.83c1.8-1,3.68-.44,5.48.61l95.33,55c1.8,1,1.81,2.73,0,3.77l-156,90.07a7.28,7.28,0,0,1-6.54,0L70.3,315.27c-1.81-1-1.81-2.73,0-3.77Z" style="fill:#FBB13C"></path><path d="M227.35,220.83c1.8-1,3.68-.44,5.48.61l95.33,55c1.8,1,1.81,2.73,0,3.77l-156,90.07a7.28,7.28,0,0,1-6.54,0L70.3,315.27c-1.81-1-1.81-2.73,0-3.77Z" style="fill:#fff;opacity:0.8"></path></g></g></g><g id="freepik--Plants--inject-36"><g id="freepik--plants--inject-36"><path d="M97.73,303.26l6.63-3.79s3.18-17.52.8-32.58c-3.34-21.17-17.76-28.47-23-26.37s-6.46,8.38,3,20.61C90.73,268.35,97.91,283.61,97.73,303.26Z" style="fill:#FBB13C"></path><path d="M97.73,303.26l6.63-3.79s3.18-17.52.8-32.58c-3.34-21.17-17.76-28.47-23-26.37s-6.46,8.38,3,20.61C90.73,268.35,97.91,283.61,97.73,303.26Z" style="opacity:0.30000000000000004"></path><path d="M100.13,294.85h-.06a.49.49,0,0,1-.41-.54c2.74-19.82-5.23-41.54-14.19-50.29a.47.47,0,0,1,.66-.68c9.12,8.92,17.25,31,14.47,51.1A.47.47,0,0,1,100.13,294.85Z" style="fill:#fff"></path><path d="M79.34,313.88c-1,.6-3.21-.71-4-1.26A10,10,0,0,1,72,308.8a9.33,9.33,0,0,1-.83-5.63,22.38,22.38,0,0,1,.71-3l.84-2.9a7.37,7.37,0,0,0,.42-2.93c-.25-2-2-3.38-3.62-4.58-1.77-1.32-3.62-3.07-3.61-5.46a8.46,8.46,0,0,1,2.11-5c1.14-1.45,2.5-2.73,3.53-4.25a5.88,5.88,0,0,0,1.21-3.72,6.24,6.24,0,0,0-.81-2.32,31.94,31.94,0,0,1-2.54-4.66c-.58-1.67-.5-3.75.8-4.94a5.49,5.49,0,0,1,4.12-1,9.47,9.47,0,0,1,3.82,1.35c3.8,2.11,6,6.6,10,8.23A40.37,40.37,0,0,0,93,269.15a6,6,0,0,1,4,2.75c1.47,3-1.27,6.59-.23,9.73.92,2.77,3.62,3.83,5.13,6.33a6,6,0,0,1,.71,3.64,17.51,17.51,0,0,1-1.53,6.13,44.4,44.4,0,0,1-3.37,5.53C97.67,303.32,79.5,313.79,79.34,313.88Z" style="fill:#FBB13C"></path><path d="M79.34,313.88c-1,.6-3.21-.71-4-1.26A10,10,0,0,1,72,308.8a9.33,9.33,0,0,1-.83-5.63,22.38,22.38,0,0,1,.71-3l.84-2.9a7.37,7.37,0,0,0,.42-2.93c-.25-2-2-3.38-3.62-4.58-1.77-1.32-3.62-3.07-3.61-5.46a8.46,8.46,0,0,1,2.11-5c1.14-1.45,2.5-2.73,3.53-4.25a5.88,5.88,0,0,0,1.21-3.72,6.24,6.24,0,0,0-.81-2.32,31.94,31.94,0,0,1-2.54-4.66c-.58-1.67-.5-3.75.8-4.94a5.49,5.49,0,0,1,4.12-1,9.47,9.47,0,0,1,3.82,1.35c3.8,2.11,6,6.6,10,8.23A40.37,40.37,0,0,0,93,269.15a6,6,0,0,1,4,2.75c1.47,3-1.27,6.59-.23,9.73.92,2.77,3.62,3.83,5.13,6.33a6,6,0,0,1,.71,3.64,17.51,17.51,0,0,1-1.53,6.13,44.4,44.4,0,0,1-3.37,5.53C97.67,303.32,79.5,313.79,79.34,313.88Z" style="opacity:0.15"></path><path d="M90.1,308.15h0a.47.47,0,0,1-.46-.49c.78-18.76-8.06-39.48-14.49-45.5a.46.46,0,0,1,0-.66.47.47,0,0,1,.66,0c6.56,6.14,15.58,27.2,14.79,46.23A.47.47,0,0,1,90.1,308.15Z" style="fill:#fff"></path><path d="M87.29,286a.32.32,0,0,1-.14,0,63.33,63.33,0,0,0-13.62-2.19.48.48,0,0,1,0-.95,65.16,65.16,0,0,1,13.86,2.24.47.47,0,0,1-.14.92Z" style="fill:#fff"></path></g></g><g id="freepik--trash-can--inject-36"><g id="freepik--trash-can--inject-36"><path d="M458.17,294.35H389.34l6,60.78h0c.37,3.89,3.13,7.72,8.28,10.69,11.11,6.42,29.11,6.42,40.22,0,5.15-3,7.9-6.8,8.28-10.69h0Z" style="fill:#37474f"></path><ellipse cx="423.76" cy="293.24" rx="34.47" ry="19.9" style="fill:#455a64"></ellipse><path d="M423.76,310.3c-8.72,0-16.87-1.93-23-5.44-5.59-3.23-8.67-7.36-8.67-11.62s3.08-8.39,8.67-11.62c6.09-3.51,14.24-5.45,23-5.45s16.87,1.94,22.95,5.45c5.6,3.23,8.68,7.36,8.68,11.62s-3.08,8.39-8.68,11.62C440.63,308.37,432.48,310.3,423.76,310.3Z" style="fill:#37474f"></path><path d="M447.42,297.27c-1.72-1.29-4.78-.12-6-1.92-.38-.57-.45-1.34-1-1.78-1.6-1.32-4,2.26-5.7,1-.62-.45-.78-1.41-1.47-1.72-.51-.22-1.09,0-1.64,0a3.3,3.3,0,0,1-2.58-2.22,11.6,11.6,0,0,0-1.59-3.21,3.54,3.54,0,0,0-2.29-1.13c-2.16-.19-3.93,1.57-5.38,3.18-.23.26-.47.52-.7.79a5.2,5.2,0,0,1-1.49,1.28,1.33,1.33,0,0,1-1,.14,1.43,1.43,0,0,1-.79-.81c-.61-1.32-.47-3.35-1.88-3.72-.38-.1-.83-.05-1.13-.31s-.29-.65-.5-.94a1.55,1.55,0,0,0-1.19-.5c-2.9-.22-5.46,1.73-7.71,3.57-1.21-.8-1.34-2.57-.88-4,1.16-3.46,4.81-5.37,8.23-6.65,1.6-.6,3.23-1.13,4.87-1.61a42,42,0,0,0-14.89,4.85c-5.59,3.23-8.67,7.36-8.67,11.62s3.08,8.39,8.67,11.62c6.09,3.51,14.24,5.44,23,5.44s16.87-1.93,22.95-5.44l.36-.22c.34-.71.65-1.43.92-2.17C448.63,300.71,448.91,298.4,447.42,297.27Z" style="opacity:0.1"></path><path d="M407.56,361.4a31,31,0,0,1-4.38-2.08c-.52-.3-1-.6-1.48-.92a5.21,5.21,0,0,1-1.61-3.51L396.68,314c-.12-1.37.5-1.91,1.44-1.28q.83.56,1.74,1.08a35.73,35.73,0,0,0,5.44,2.55,4.07,4.07,0,0,1,2.49,3.31l2,40.05A1.56,1.56,0,0,1,407.56,361.4Z" style="fill:#263238"></path><path d="M429.06,321.77l-.68,39.76a2.74,2.74,0,0,1-2.54,2.67c-1.38.06-2.78.06-4.17,0a2.74,2.74,0,0,1-2.53-2.67l-.65-39.76a2.26,2.26,0,0,1,2.45-2.32,53.62,53.62,0,0,0,5.67,0A2.26,2.26,0,0,1,429.06,321.77Z" style="fill:#263238"></path><path d="M450.89,314l-3.45,40.92a5.31,5.31,0,0,1-1.62,3.52c-.47.31-1,.62-1.48.91A31.66,31.66,0,0,1,440,361.4a1.56,1.56,0,0,1-2.24-1.68l2-40.06a4.07,4.07,0,0,1,2.49-3.31,36.92,36.92,0,0,0,5.42-2.54c.61-.35,1.2-.72,1.76-1.1C450.37,312.07,451,312.6,450.89,314Z" style="fill:#263238"></path><path d="M394.11,299.06a20.48,20.48,0,0,0,6.69,5.8c6.09,3.51,14.24,5.44,23,5.44s16.87-1.93,22.95-5.44a23.78,23.78,0,0,0,4.88-3.65,6.13,6.13,0,0,0-.61-1.71,4,4,0,0,0-3.1-2.12c-.75,0-1.49.17-2.23.13a1.74,1.74,0,0,1-1.72-1.15c-.07-.33,0-.68-.05-1-.17-.87-1.27-1.24-2.15-1.08s-1.65.67-2.51.89a1.94,1.94,0,0,1-2.31-.8c-.17-.42-.11-.92-.35-1.31-.48-.81-1.9-.63-2.37-1.45-.37-.65.09-1.43.2-2.16a3.11,3.11,0,0,0-1.77-3,9,9,0,0,0-3.58-.8,5.9,5.9,0,0,0-3.9.55c-1.16.8-1.59,2.27-2.14,3.56s-1.57,2.64-3,2.63a3.22,3.22,0,0,0-1.89-2.73,13.09,13.09,0,0,0-2-.5c-2.05-.56-4-2.27-6-1.72a5.8,5.8,0,0,0-2.24,1.43l-3.34,2.93a5.38,5.38,0,0,0-1.82,2.34,4.9,4.9,0,0,1-.36,1.2c-.63,1-1.94.6-2.91.62a5.43,5.43,0,0,0-3.7,1.12A6.15,6.15,0,0,0,394.11,299.06Z" style="fill:#FBB13C"></path><path d="M446.71,304.86a23.78,23.78,0,0,0,4.88-3.65,6.09,6.09,0,0,0-.17-.61,9.89,9.89,0,0,1-8.5,2,10.38,10.38,0,0,0-3-.6,2.15,2.15,0,0,0-2.17,1.81.8.8,0,0,1,0,.41.59.59,0,0,1-.43.24c-2.62.57-5.6-1-7.92.37a14.26,14.26,0,0,1-2.4,1.59,4.8,4.8,0,0,1-3.07-.42,1.93,1.93,0,0,1-.77-.42c-.4-.41-.39-1.06-.7-1.53a2.71,2.71,0,0,0-1.05-.77,8.22,8.22,0,0,0-4.49-1.24,5.5,5.5,0,0,0-4.17,3.55c-3.69-1.29-6.36-5.6-10.25-5.19-.34-1.2,1.09-2.11,2.29-2.47s2.69-.92,2.74-2.17c0-.52-.24-1-.18-1.54.09-.72.81-1.36.59-2.06a3.1,3.1,0,0,0-.59-.82,2.14,2.14,0,0,1-.38-1.59l-2.29,2a5.38,5.38,0,0,0-1.82,2.34,4.9,4.9,0,0,1-.36,1.2c-.63,1-1.94.6-2.91.62a5.43,5.43,0,0,0-3.7,1.12,6.15,6.15,0,0,0-1.69,2,20.48,20.48,0,0,0,6.69,5.8c6.09,3.51,14.24,5.44,23,5.44S440.63,308.37,446.71,304.86Z" style="opacity:0.1"></path></g></g></svg>
